<?xml version="1.0" encoding="UTF-8"?>
<svg version="1.1" xmlns="http://www.w3.org/2000/svg" width="633" height="337">
<path d="M0 0 C3 1 3 1 4.54296875 3.80859375 C5.08566406 5.00613281 5.62835938 6.20367187 6.1875 7.4375 C13.05221901 21.85194075 23.01500326 31.33621462 38 37 C46.77430019 40.06635907 55.81018465 41.01990677 65 42 C63.68633787 55.16905736 53.50940078 64.61003776 44.4453125 73.5078125 C41.98299567 75.9195369 41.98299567 75.9195369 40.046875 78.52734375 C36.1503568 83.23439722 30.97850537 86.52541813 26 90 C25.34 90.4846875 24.68 90.969375 24 91.46875 C17.54946966 95.50033146 9.28111944 94.87229253 2 94 C-1.64916364 92.73548167 -4.79988126 91.15392607 -8 89 C-8 88.34 -8 87.68 -8 87 C-8.57363281 86.74347656 -9.14726563 86.48695313 -9.73828125 86.22265625 C-14.44705488 83.67715341 -18.14289683 79.6652019 -22 76 C-22.64791504 75.38608398 -23.29583008 74.77216797 -23.96337891 74.13964844 C-33.43410081 65.09891782 -41.97495415 56.0752711 -49 45 C-49.57621094 44.11183594 -50.15242188 43.22367188 -50.74609375 42.30859375 C-54.10930282 36.77616041 -54.10930282 36.77616041 -53.61328125 33.25390625 C-53.41089844 32.51011719 -53.20851563 31.76632813 -53 31 C-52.030625 30.731875 -51.06125 30.46375 -50.0625 30.1875 C-42.50148016 28.00967511 -35.35545288 25.4688775 -28.3125 21.9375 C-27.65443359 21.60943359 -26.99636719 21.28136719 -26.31835938 20.94335938 C-22.51231421 18.97552797 -19.26229723 16.76539103 -16 14 C-15.16339844 13.35160156 -14.32679687 12.70320313 -13.46484375 12.03515625 C-12.63082031 11.38417969 -11.79679687 10.73320313 -10.9375 10.0625 C-10.10089844 9.41410156 -9.26429687 8.76570313 -8.40234375 8.09765625 C-5.91815445 5.92853486 -4.03420749 3.58541211 -2 1 C-1.34 0.67 -0.68 0.34 0 0 Z M-1 7 C-2.40712072 8.46843317 -3.80005277 9.95046439 -5.1875 11.4375 C-16.72277874 23.08829656 -31.4700884 30.22361825 -47 35 C-45.65049136 39.81034532 -43.54458788 43.56221526 -40.625 47.5625 C-39.97277466 48.46560913 -39.97277466 48.46560913 -39.30737305 49.38696289 C-34.37580593 56.06492698 -28.76217724 62.0402624 -23 68 C-22.38640625 68.66515625 -21.7728125 69.3303125 -21.140625 70.015625 C-13.2162085 78.41079891 -1.76842376 88.5991367 9.8125 90.6875 C21.17503063 89.76682064 29.74935421 81.1960404 37.39648438 73.59326172 C39.0046571 71.99537268 40.63267628 70.42017997 42.265625 68.84765625 C46.22411437 65.01275751 46.22411437 65.01275751 50 61 C50 60.34 50 59.68 50 59 C50.66 59 51.32 59 52 59 C53.821042 56.82541722 53.821042 56.82541722 55.625 54.125 C56.57246094 52.76761719 56.57246094 52.76761719 57.5390625 51.3828125 C59.17423105 49.18166294 59.17423105 49.18166294 59 47 C57.90042969 46.82984375 56.80085938 46.6596875 55.66796875 46.484375 C36.39190163 43.38167546 22.07892839 37.14722404 9 22 C5.55272072 17.22827231 2.5678663 12.29545634 0 7 C-0.33 7 -0.66 7 -1 7 Z " fill="#A88853" transform="translate(123,110)"/>
<path d="M0 0 C4.59353752 3.5238096 6.69816995 7.84478409 7.74609375 13.48046875 C8.53618421 20.24013158 8.53618421 20.24013158 7.25 22.8125 C5.18359375 23.2265625 5.18359375 23.2265625 2.6875 23.4375 C1.86121094 23.51226562 1.03492188 23.58703125 0.18359375 23.6640625 C-0.77353516 23.73753906 -0.77353516 23.73753906 -1.75 23.8125 C-1.75 24.4725 -1.75 25.1325 -1.75 25.8125 C-0.96625 26.080625 -0.1825 26.34875 0.625 26.625 C3.25 27.8125 3.25 27.8125 5.25 30.8125 C1.46204665 36.49443002 -3.45305252 38.71351751 -9.75 40.8125 C-19.06412025 41.67277398 -26.37005082 39.64780865 -33.75 33.8125 C-35.5 31.3125 -35.5 31.3125 -36.75 28.8125 C-37.09933594 28.23113281 -37.44867188 27.64976562 -37.80859375 27.05078125 C-40.14739935 21.49005257 -39.75390355 13.39183502 -37.5 7.8125 C-33.74783405 1.38021552 -30.1254674 -2.35942605 -22.875 -4.375 C-14.17577457 -6.29730075 -7.41939813 -4.69261078 0 0 Z M-24.75 10.8125 C-24.42 11.8025 -24.09 12.7925 -23.75 13.8125 C-15.335 13.3175 -15.335 13.3175 -6.75 12.8125 C-9.07251426 7.92754475 -9.07251426 7.92754475 -11.75 6.8125 C-17.65750084 6.32827862 -20.36970306 6.43220306 -24.75 10.8125 Z M-24.75 22.8125 C-24.24019039 26.84628366 -24.24019039 26.84628366 -21.6875 28.0625 C-16.63375163 29.35281873 -12.48338356 29.67919178 -7.75 27.3125 C-7.09 26.8175 -6.43 26.3225 -5.75 25.8125 C-6.08 24.8225 -6.41 23.8325 -6.75 22.8125 C-12.69 22.8125 -18.63 22.8125 -24.75 22.8125 Z " fill="#B29253" transform="translate(464.75,141.1875)"/>
<path d="M0 0 C2.21161309 2.03708382 3.58544734 3.83957243 4.82421875 6.57421875 C5.10096436 7.17580811 5.37770996 7.77739746 5.6628418 8.3972168 C6.000979 9.15301025 6.33911621 9.90880371 6.6875 10.6875 C7.780625 13.100625 8.87375 15.51375 10 18 C12.64 12.72 15.28 7.44 18 2 C21.96 2 25.92 2 30 2 C30 5.64523982 28.85197327 8.4638422 27.5625 11.8125 C27.30243164 12.49666992 27.04236328 13.18083984 26.77441406 13.88574219 C17.23239711 38.75647681 17.23239711 38.75647681 13 47 C8.71605896 45.57201965 7.80818812 42.43472604 5.875 38.625 C5.51535156 37.93921875 5.15570313 37.2534375 4.78515625 36.546875 C3.3224051 33.73094207 2.00483625 31.01450874 1 28 C0.34 27.67 -0.32 27.34 -1 27 C-1.38285156 28.25683594 -1.38285156 28.25683594 -1.7734375 29.5390625 C-3.11768918 33.33207838 -4.79014193 36.80224791 -6.625 40.375 C-6.94984375 41.01566406 -7.2746875 41.65632813 -7.609375 42.31640625 C-8.40257407 43.87947501 -9.20077031 45.44000622 -10 47 C-10.99 47 -11.98 47 -13 47 C-15.42836986 41.07645631 -17.84861118 35.1496401 -20.26318359 29.22045898 C-21.08585023 27.20309072 -21.91038663 25.18648389 -22.73681641 23.1706543 C-23.92320246 20.27590082 -25.10287534 17.37849107 -26.28125 14.48046875 C-26.65310425 13.57725388 -27.0249585 12.674039 -27.40808105 11.74345398 C-27.74843384 10.90280899 -28.08878662 10.062164 -28.43945312 9.19604492 C-28.7414563 8.45658127 -29.04345947 7.71711761 -29.35461426 6.95524597 C-30 5 -30 5 -30 2 C-25.71 2 -21.42 2 -17 2 C-14.13965435 7.33931188 -12.26869235 12.07943568 -11 18 C-10.34 18 -9.68 18 -9 18 C-8.79375 17.236875 -8.5875 16.47375 -8.375 15.6875 C-6.46794149 10.5731158 -3.91991617 3.91991617 0 0 Z " fill="#9B7038" transform="translate(241,135)"/>
<path d="M0 0 C5.18455653 3.15968682 8.63046904 7.26367261 10.875 12.875 C11.57925132 16.8892325 11.71040694 20.36963257 11.5 24.4375 C9.45301586 26.48448414 5.19588759 26.13795693 2.5 26.4375 C2.5 27.0975 2.5 27.7575 2.5 28.4375 C4.48 29.4275 6.46 30.4175 8.5 31.4375 C6.41140851 36.56404276 2.87907856 40.0800714 -2.1875 42.25 C-9.66687356 44.69626128 -16.4661627 44.17144851 -23.46484375 40.62890625 C-29.39206431 37.15903625 -33.45140474 33.11871409 -35.5 26.4375 C-36.43592935 18.9734634 -35.59773424 11.84315945 -30.9375 5.75 C-23.22763546 -2.45906441 -10.33488491 -4.58226183 0 0 Z M-21.5 14.4375 C-21.5 15.0975 -21.5 15.7575 -21.5 16.4375 C-15.56 16.4375 -9.62 16.4375 -3.5 16.4375 C-3.83 14.7875 -4.16 13.1375 -4.5 11.4375 C-10.79744309 7.23920461 -16.98669713 8.32270256 -21.5 14.4375 Z M-21.5 25.4375 C-21.13643905 27.40596382 -21.13643905 27.40596382 -20.5 29.4375 C-16.36062721 31.97797343 -12.36957558 32.56372871 -7.625 31.875 C-4.45653046 30.41750401 -3.19689736 29.43202475 -1.5 26.4375 C-2.48407311 25.23254091 -2.48407311 25.23254091 -4.35766602 25.32397461 C-5.14842529 25.32921143 -5.93918457 25.33444824 -6.75390625 25.33984375 C-8.03491211 25.34467773 -8.03491211 25.34467773 -9.34179688 25.34960938 C-10.23962891 25.35798828 -11.13746094 25.36636719 -12.0625 25.375 C-12.96419922 25.37951172 -13.86589844 25.38402344 -14.79492188 25.38867188 C-17.03001314 25.40049775 -19.26497437 25.4169778 -21.5 25.4375 Z " fill="#E5D68B" transform="translate(408.5,138.5625)"/>
<path d="M0 0 C0.33 -0.33 0.66 -0.66 1 -1 C4.96 -1 8.92 -1 13 -1 C13 13.19 13 27.38 13 42 C8.05 42 3.1 42 -2 42 C-4.31 42.66 -6.62 43.32 -9 44 C-15.60376516 44.58962189 -20.00610767 42.78207877 -25.625 39.4375 C-30.60895361 34.32238971 -34 27.17763512 -34 20 C-32.87765924 12.23714307 -30.36610168 5.85489624 -24 1 C-15.92972166 -2.83435376 -8.34396027 -2.72455845 0 0 Z M-18 12 C-20.1416957 15.60360402 -21.30055168 19.06645085 -20.6484375 23.26171875 C-19.63608725 26.27095767 -18.37575474 28.53753263 -16.375 31 C-12.58657085 32.59512806 -9.03816728 32.62735813 -5 32 C-1.24092775 30.08047374 0.22937924 28.10588139 1.5 24.1875 C2.37767415 19.7494496 1.29806494 16.9067104 -1 13 C-3.37228895 10.45826184 -4.97574874 10.00628736 -8.375 9.125 C-12.73466874 8.9746666 -14.53875743 9.32540347 -18 12 Z " fill="#BFA260" transform="translate(307,138)"/>
<path d="M0 0 C1.81640625 2.140625 1.81640625 2.140625 3 4 C1.02 6.31 -0.96 8.62 -3 11 C-5.64347024 10.54683367 -7.91851126 10.03645549 -10.375 8.9375 C-13.67302227 7.7596349 -16.52515231 7.86373146 -20 8 C-20 8.99 -20 9.98 -20 11 C-19.34773438 11.12117187 -18.69546875 11.24234375 -18.0234375 11.3671875 C-4.28347679 14.00169324 -4.28347679 14.00169324 1 18 C3.8916543 22.38733756 4.63975578 25.79056007 4 31 C2.14160631 35.76718382 0.51308303 38.10870864 -4.0625 40.4375 C-13.21698501 43.87791103 -20.77701885 42.18757593 -29.56640625 38.484375 C-32.19273228 36.88244259 -32.97062413 35.85057933 -34 33 C-32.35 30.69 -30.7 28.38 -29 26 C-24.65071317 26.79360869 -20.5866257 28.07105639 -16.40234375 29.4765625 C-13.84531937 30.03370277 -12.44467389 29.84688472 -10 29 C-10 28.01 -10 27.02 -10 26 C-11.64548828 25.61908203 -11.64548828 25.61908203 -13.32421875 25.23046875 C-14.77875214 24.88325755 -16.23317342 24.53557642 -17.6875 24.1875 C-18.40873047 24.02185547 -19.12996094 23.85621094 -19.87304688 23.68554688 C-25.48260734 22.32798201 -29.66831396 20.99752906 -33 16 C-34.210322 10.75527133 -34.1558203 6.96775983 -32 2 C-29.1875 -0.3125 -29.1875 -0.3125 -26 -2 C-25.2575 -2.4125 -24.515 -2.825 -23.75 -3.25 C-15.56889833 -5.48120955 -7.41958998 -3.99991207 0 0 Z " fill="#EDE197" transform="translate(363,140)"/>
<path d="M0 0 C1.19109375 -0.00386719 1.19109375 -0.00386719 2.40625 -0.0078125 C4.5 0.125 4.5 0.125 6.5 1.125 C6.83 2.115 7.16 3.105 7.5 4.125 C7.995 3.650625 8.49 3.17625 9 2.6875 C12.52997897 0.48126314 15.35567657 0.39675891 19.5 0.125 C20.5 1.125 20.5 1.125 20.59765625 3.62890625 C20.58605469 4.63824219 20.57445312 5.64757812 20.5625 6.6875 C20.55347656 7.69941406 20.54445313 8.71132812 20.53515625 9.75390625 C20.52355469 10.53636719 20.51195312 11.31882813 20.5 12.125 C19.81292969 12.34414062 19.12585938 12.56328125 18.41796875 12.7890625 C17.51691406 13.10617188 16.61585938 13.42328125 15.6875 13.75 C14.79417969 14.05164063 13.90085937 14.35328125 12.98046875 14.6640625 C9.49510786 16.71685773 8.81044682 18.28635995 7.5 22.125 C7.04611467 25.89417423 6.94383929 29.64396315 6.875 33.4375 C6.82423846 35.43369745 6.76976064 37.42980509 6.7109375 39.42578125 C6.69337402 40.30403564 6.67581055 41.18229004 6.65771484 42.0871582 C6.5 44.125 6.5 44.125 5.5 45.125 C4.0444063 45.22358603 2.58392081 45.25472143 1.125 45.25 C0.33351563 45.25257813 -0.45796875 45.25515625 -1.2734375 45.2578125 C-3.5 45.125 -3.5 45.125 -6.5 44.125 C-6.5 29.935 -6.5 15.745 -6.5 1.125 C-4.13386544 -0.05806728 -2.63219264 -0.00854608 0 0 Z " fill="#9C7138" transform="translate(486.5,135.875)"/>
<path d="M0 0 C2.21161309 2.03708382 3.58544734 3.83957243 4.82421875 6.57421875 C5.10096436 7.17580811 5.37770996 7.77739746 5.6628418 8.3972168 C6.000979 9.15301025 6.33911621 9.90880371 6.6875 10.6875 C7.780625 13.100625 8.87375 15.51375 10 18 C12.64 12.72 15.28 7.44 18 2 C21.96 2 25.92 2 30 2 C30 5.64523982 28.85197327 8.4638422 27.5625 11.8125 C27.30243164 12.49666992 27.04236328 13.18083984 26.77441406 13.88574219 C17.23239711 38.75647681 17.23239711 38.75647681 13 47 C8.74471734 45.58157245 7.81655104 42.52642344 5.875 38.75 C5.51535156 38.08097656 5.15570313 37.41195312 4.78515625 36.72265625 C1.23884965 29.96209423 1.23884965 29.96209423 1 26 C1.66 25.01 2.32 24.02 3 23 C3.66 23 4.32 23 5 23 C5.66 23.66 6.32 24.32 7 25 C7.98120464 21.94736336 7.98120464 20.05263664 7 17 C5.824375 17.0928125 5.824375 17.0928125 4.625 17.1875 C3.75875 17.125625 2.8925 17.06375 2 17 C1.34 16.01 0.68 15.02 0 14 C-0.99 14 -1.98 14 -3 14 C-3 13.34 -3 12.68 -3 12 C-4.32 12.33 -5.64 12.66 -7 13 C-6.02325896 11.01963514 -5.04354018 9.04073867 -4.0625 7.0625 C-3.51722656 5.96035156 -2.97195312 4.85820312 -2.41015625 3.72265625 C-1 1 -1 1 0 0 Z " fill="#AB8647" transform="translate(241,135)"/>
<path d="M0 0 C0.84884766 0.23396484 0.84884766 0.23396484 1.71484375 0.47265625 C2.81505859 0.76462891 2.81505859 0.76462891 3.9375 1.0625 C5.03384766 1.35833984 5.03384766 1.35833984 6.15234375 1.66015625 C7.06693359 1.82837891 7.06693359 1.82837891 8 2 C8.33 1.67 8.66 1.34 9 1 C12.96 1 16.92 1 21 1 C21 15.19 21 29.38 21 44 C15.72 44 10.44 44 5 44 C2.35877863 37.39694656 2.35877863 37.39694656 3 33 C4.6454378 31.31237149 6.31288577 29.6459651 8 28 C9.38372071 24.02180295 9.09266028 22.27798083 7.75 18.25 C6.2269796 14.81215481 6.2269796 14.81215481 3 13 C3.66 11.68 4.32 10.36 5 9 C5.33 9.66 5.66 10.32 6 11 C6.66 11 7.32 11 8 11 C8.33 12.65 8.66 14.3 9 16 C9.66 16 10.32 16 11 16 C10.79375 15.236875 10.5875 14.47375 10.375 13.6875 C10 11 10 11 12 8 C11.67 7.34 11.34 6.68 11 6 C8.2303041 5.27113266 5.87137415 5 3 5 C3 4.34 3 3.68 3 3 C2.01 2.67 1.02 2.34 0 2 C0 1.34 0 0.68 0 0 Z " fill="#D7C179" transform="translate(299,136)"/>
<path d="M0 0 C-0.33 2.31 -0.66 4.62 -1 7 C-1.66 6.67 -2.32 6.34 -3 6 C-2.79375 6.53625 -2.5875 7.0725 -2.375 7.625 C-1.8685253 10.83267308 -2.84599775 13.01317066 -4 16 C-1.03 16 1.94 16 5 16 C5 19.1474213 4.399734 20.28801537 3 23 C3 23.66 3 24.32 3 25 C0.69 25 -1.62 25 -4 25 C-3.42547254 28.93075644 -3.42547254 28.93075644 -1 32 C-2.32 32 -3.64 32 -5 32 C-4.34 34.31 -3.68 36.62 -3 39 C-4.32 39.99 -5.64 40.98 -7 42 C-12.76757891 38.30426983 -17.23528149 34.83689689 -19 28 C-19.96455018 19.04187879 -19.2013958 12.69538051 -14.125 5.25 C-10.59967706 1.51730512 -5.20846519 -2.60423259 0 0 Z " fill="#BFA160" transform="translate(445,138)"/>
<path d="M0 0 C2.49361571 1.20381448 4.68143083 2.45428722 7 4 C7.33 2.68 7.66 1.36 8 0 C8.61875 0.72703125 8.61875 0.72703125 9.25 1.46875 C19.18822269 13.00418705 33.11257035 28.85636514 48.8125 31.6875 C58.18185477 31.01425295 66.58999304 24.37230103 73 18 C75 20 75 20 75 21 C75.66 21 76.32 21 77 21 C77.495 19.515 77.495 19.515 78 18 C78.495 19.485 78.495 19.485 79 21 C68.33703492 30.43544161 59.82111347 37.23976502 44.875 36.5078125 C39.53078238 35.8074614 35.44358953 33.99087757 31 31 C31 30.34 31 29.68 31 29 C30.42636719 28.74347656 29.85273437 28.48695313 29.26171875 28.22265625 C21.12105576 23.82191788 14.37881367 15.47543929 7.875 9 C7.10389893 8.23357178 6.33279785 7.46714355 5.53833008 6.67749023 C4.4636145 5.59963257 4.4636145 5.59963257 3.3671875 4.5 C2.71862793 3.8503125 2.07006836 3.200625 1.40185547 2.53125 C0 1 0 1 0 0 Z " fill="#E7DBA0" transform="translate(84,168)"/>
<path d="M0 0 C4.63087073 3.25412538 7.20182154 6.37256395 8.4375 11.98828125 C9.02324417 15.87615819 9.06518875 19.21266221 8 23 C4.04 23.495 4.04 23.495 0 24 C0 24.66 0 25.32 0 26 C1.98 26.99 3.96 27.98 6 29 C4.4411666 32.82622743 2.04566418 35.25147379 -1 38 C-4.34715311 39.1157177 -5.71071522 39.1807689 -9 38 C-9.71727778 36.35448038 -10.38325228 34.68577711 -11 33 C-13.01735205 31.65589738 -13.01735205 31.65589738 -15 31 C-14.67 30.34 -14.34 29.68 -14 29 C-12.865625 28.690625 -11.73125 28.38125 -10.5625 28.0625 C-6.76783002 27.34378643 -6.76783002 27.34378643 -5 24 C-5.639375 23.608125 -6.27875 23.21625 -6.9375 22.8125 C-9.43778819 20.61527704 -9.64950425 19.24208567 -10 16 C-8.02 15.01 -6.04 14.02 -4 13 C-4 11.68 -4 10.36 -4 9 C-3.6875 6.375 -3.6875 6.375 -3 4 C-2.01 3.34 -1.02 2.68 0 2 C0 1.34 0 0.68 0 0 Z " fill="#D3BC76" transform="translate(411,141)"/>
<path d="M0 0 C1.0209375 1.2065625 1.0209375 1.2065625 2.0625 2.4375 C0.7425 3.4275 -0.5775 4.4175 -1.9375 5.4375 C-1.6075 6.0975 -1.2775 6.7575 -0.9375 7.4375 C-1.5975 7.4375 -2.2575 7.4375 -2.9375 7.4375 C-2.2775 9.0875 -1.6175 10.7375 -0.9375 12.4375 C-2.87004772 14.4620738 -4.56908688 15.85855792 -6.9375 17.4375 C-6.9375 18.7575 -6.9375 20.0775 -6.9375 21.4375 C-6.2775 22.0975 -5.6175 22.7575 -4.9375 23.4375 C-10.8775 23.4375 -16.8175 23.4375 -22.9375 23.4375 C-23.2675 24.0975 -23.5975 24.7575 -23.9375 25.4375 C-24.2675 24.4475 -24.5975 23.4575 -24.9375 22.4375 C-24.2775 22.1075 -23.6175 21.7775 -22.9375 21.4375 C-22.793125 20.798125 -22.64875 20.15875 -22.5 19.5 C-21.9375 17.4375 -21.9375 17.4375 -18.9375 15.4375 C-18.9375 14.7775 -18.9375 14.1175 -18.9375 13.4375 C-12.0075 13.9325 -12.0075 13.9325 -4.9375 14.4375 C-6.27313616 9.49286365 -6.27313616 9.49286365 -8.9375 8.4375 C-14.376418 7.88185415 -18.46229327 7.97282382 -22.9375 11.4375 C-24.9175 7.9725 -24.9175 7.9725 -26.9375 4.4375 C-25.53674415 1.63598829 -24.54702087 -0.20395831 -21.8125 -1.8125 C-14.44952186 -3.73327691 -6.1048338 -5.32549331 0 0 Z " fill="#DAC880" transform="translate(409.9375,140.5625)"/>
<path d="M0 0 C0.66 0.33 1.32 0.66 2 1 C2 2.32 2 3.64 2 5 C-18.30211505 16.89825235 -18.30211505 16.89825235 -30 19 C-26.37759276 26.3442531 -22.25689671 32.41234192 -16.7578125 38.4921875 C-14.78587721 41.30548184 -14.60298288 42.64340072 -15 46 C-23.07169439 42.58505237 -27.42819796 36.13879993 -32 29 C-32.52464844 28.18402344 -33.04929687 27.36804688 -33.58984375 26.52734375 C-37.09629362 20.70916239 -37.09629362 20.70916239 -36.625 17.23828125 C-36.41875 16.49964844 -36.2125 15.76101562 -36 15 C-35.030625 14.731875 -34.06125 14.46375 -33.0625 14.1875 C-21.87086509 10.96152673 -11.83362311 6.37683976 -1.671875 0.69921875 C-1.12015625 0.46847656 -0.5684375 0.23773438 0 0 Z " fill="#9A713C" transform="translate(106,126)"/>
<path d="M0 0 C3 1 3 1 4.54296875 3.80859375 C5.08566406 5.00613281 5.62835938 6.20367187 6.1875 7.4375 C12.13003217 19.91554575 20.70937036 30.19275098 34 35 C33 38 33 38 30.9375 39.1875 C30.298125 39.455625 29.65875 39.72375 29 40 C17.15786588 31.94014446 8.2575621 23.39146257 1 11 C0.34 10.01 -0.32 9.02 -1 8 C-1.67546875 8.69867188 -2.3509375 9.39734375 -3.046875 10.1171875 C-4.38492188 11.48230469 -4.38492188 11.48230469 -5.75 12.875 C-6.63171875 13.77992187 -7.5134375 14.68484375 -8.421875 15.6171875 C-10.61636684 17.64542996 -12.2667136 18.88880413 -15 20 C-15.66 19.01 -16.32 18.02 -17 17 C-17.66 16.67 -18.32 16.34 -19 16 C-18.27554688 15.50371094 -17.55109375 15.00742188 -16.8046875 14.49609375 C-11.01327646 10.42666226 -6.40092774 6.52937075 -2 1 C-1.34 0.67 -0.68 0.34 0 0 Z " fill="#EBE097" transform="translate(123,110)"/>
<path d="M0 0 C4.25939774 4.68533751 5.83045914 9.00477809 6.1875 15.3125 C6 18 6 18 5 20 C2.93359375 20.4140625 2.93359375 20.4140625 0.4375 20.625 C-0.38878906 20.69976562 -1.21507812 20.77453125 -2.06640625 20.8515625 C-3.02353516 20.92503906 -3.02353516 20.92503906 -4 21 C-4 21.66 -4 22.32 -4 23 C-3.01 23.33 -2.02 23.66 -1 24 C0.17755913 26.94389782 0.03348696 27.89953913 -1 31 C-2.32 31 -3.64 31 -5 31 C-5.33 31.66 -5.66 32.32 -6 33 C-8.0625 34.125 -8.0625 34.125 -10 35 C-11.83449724 31.90428591 -12.6450399 29.59379371 -12 26 C-10.33333333 25 -8.66666667 24 -7 23 C-6.07000984 18.69879549 -7.92631577 15.7153509 -10 12 C-9.34 12 -8.68 12 -8 12 C-8 11.34 -8 10.68 -8 10 C-7.34 10 -6.68 10 -6 10 C-5.67 10.66 -5.34 11.32 -5 12 C-4.67 11.34 -4.34 10.68 -4 10 C-4.66 9.67 -5.32 9.34 -6 9 C-5.67 8.01 -5.34 7.02 -5 6 C-4.34 6 -3.68 6 -3 6 C-2.87625 5.195625 -2.7525 4.39125 -2.625 3.5625 C-2.41875 2.716875 -2.2125 1.87125 -2 1 C-1.34 0.67 -0.68 0.34 0 0 Z " fill="#AB8748" transform="translate(467,144)"/>
<path d="M0 0 C1.65322266 0.01740234 1.65322266 0.01740234 3.33984375 0.03515625 C4.99693359 0.04869141 4.99693359 0.04869141 6.6875 0.0625 C7.54214844 0.07410156 8.39679688 0.08570313 9.27734375 0.09765625 C9.27734375 4.0396049 7.86350977 7.22368944 6.46484375 10.84765625 C6.20380859 11.53859375 5.94277344 12.22953125 5.67382812 12.94140625 C3.98513967 17.37786184 2.17398606 21.74620063 0.27734375 26.09765625 C-1.66015625 25.78515625 -1.66015625 25.78515625 -3.72265625 25.09765625 C-4.05265625 24.10765625 -4.38265625 23.11765625 -4.72265625 22.09765625 C-5.71265625 22.09765625 -6.70265625 22.09765625 -7.72265625 22.09765625 C-7.72265625 20.09765625 -7.72265625 20.09765625 -5.72265625 18.09765625 C-6.38265625 16.77765625 -7.04265625 15.45765625 -7.72265625 14.09765625 C-7.72265625 14.75765625 -7.72265625 15.41765625 -7.72265625 16.09765625 C-8.38265625 15.76765625 -9.04265625 15.43765625 -9.72265625 15.09765625 C-8.74639594 12.78388946 -7.76680493 10.47163562 -6.78515625 8.16015625 C-6.50736328 7.50080078 -6.22957031 6.84144531 -5.94335938 6.16210938 C-3.37199268 0.12094665 -3.37199268 0.12094665 0 0 Z " fill="#B18E4E" transform="translate(261.72265625,136.90234375)"/>
<path d="M0 0 C2.60480235 1.40425285 3.77284986 2.79167172 5.34765625 5.265625 C3.36765625 7.575625 1.38765625 9.885625 -0.65234375 12.265625 C-4.21014571 11.65571609 -7.33520265 10.6872569 -10.65234375 9.265625 C-10.65234375 8.605625 -10.65234375 7.945625 -10.65234375 7.265625 C-11.58046875 7.3275 -12.50859375 7.389375 -13.46484375 7.453125 C-16.65234375 7.265625 -16.65234375 7.265625 -18.58984375 6.015625 C-19.65234375 4.265625 -19.65234375 4.265625 -19.33984375 2.078125 C-19.11296875 1.48 -18.88609375 0.881875 -18.65234375 0.265625 C-19.64234375 0.760625 -19.64234375 0.760625 -20.65234375 1.265625 C-21.64234375 0.605625 -22.63234375 -0.054375 -23.65234375 -0.734375 C-15.88961222 -4.87449848 -7.82407294 -2.83693004 0 0 Z " fill="#EFE8A3" transform="translate(360.65234375,138.734375)"/>
<path d="M0 0 C0.33 0.99 0.66 1.98 1 3 C0.34 3 -0.32 3 -1 3 C-1.39180108 4.57925975 -1.76280736 6.16368794 -2.125 7.75 C-2.33382813 8.63171875 -2.54265625 9.5134375 -2.7578125 10.421875 C-3.03883262 13.41337945 -2.87915992 14.6510501 -1 17 C1.41679707 17.70176588 1.41679707 17.70176588 4.125 17.75 C5.03507812 17.80671875 5.94515625 17.8634375 6.8828125 17.921875 C7.93082031 17.96054688 7.93082031 17.96054688 9 18 C9.28875 18.94875 9.5775 19.8975 9.875 20.875 C10.76825109 24.05211578 10.76825109 24.05211578 13 26 C11.68 26 10.36 26 9 26 C9.66 28.31 10.32 30.62 11 33 C9.68 33.99 8.36 34.98 7 36 C1.23242109 32.30426983 -3.23528149 28.83689689 -5 22 C-5.78129504 14.74383458 -5.69252573 8.39090992 -2 2 C-1.34 1.34 -0.68 0.68 0 0 Z " fill="#BFA263" transform="translate(431,144)"/>
<path d="M0 0 C0.33 0.66 0.66 1.32 1 2 C1.99 1.67 2.98 1.34 4 1 C6.125 1.75 6.125 1.75 8 3 C9 6 9 6 8.0625 8 C7.5365625 8.99 7.5365625 8.99 7 10 C7 10.99 7 11.98 7 13 C6.34 13 5.68 13 5 13 C4.67 11.35 4.34 9.7 4 8 C0.34611855 7.83830958 0.34611855 7.83830958 -1.75 8.4375 C-5.1297358 9.28243395 -8.5407665 9.59642276 -12 10 C-12.28875 9.360625 -12.5775 8.72125 -12.875 8.0625 C-13.82823451 5.84793921 -13.82823451 5.84793921 -16 5 C-15.67 3.68 -15.34 2.36 -15 1 C-16.1446875 1.495 -16.1446875 1.495 -17.3125 2 C-20 3 -20 3 -23 3 C-16.46749401 -3.12422436 -7.91193141 -4.98158644 0 0 Z " fill="#C3AC71" transform="translate(303,139)"/>
<path d="M0 0 C-0.47746854 5.4113101 -3.55054318 8.94228941 -7.5769043 12.32470703 C-9.27500646 13.59284342 -10.99939859 14.8054523 -12.75 16 C-13.36472168 16.42788818 -13.97944336 16.85577637 -14.61279297 17.29663086 C-15.83832187 18.14698802 -17.06660959 18.99338534 -18.29785156 19.83544922 C-19.79656884 20.86081947 -21.28578415 21.9000489 -22.7734375 22.94140625 C-29.29816317 27.43934836 -29.29816317 27.43934836 -33 28 C-33.66 27.67 -34.32 27.34 -35 27 C-35 25.68 -35 24.36 -35 23 C-34.36835937 22.67128906 -33.73671875 22.34257812 -33.0859375 22.00390625 C-27.42616365 18.99460286 -21.91643671 15.79907822 -16.5 12.375 C-15.90106934 12.00318604 -15.30213867 11.63137207 -14.68505859 11.24829102 C-11.41822904 9.15482485 -9.22586817 7.15331325 -7 4 C-6.34 4 -5.68 4 -5 4 C-4.67 3.01 -4.34 2.02 -4 1 C-2 0 -2 0 0 0 Z " fill="#CCBD83" transform="translate(140,145)"/>
<path d="M0 0 C-0.71984038 5.82537492 -5.9719808 9.15974919 -10.25244141 12.66113281 C-13.31094758 15.00436387 -16.52277721 17.0611772 -19.8125 19.0625 C-20.43398926 19.4443042 -21.05547852 19.8261084 -21.69580078 20.21948242 C-25.44806842 22.41207255 -28.67643627 23.56962995 -33 24 C-32.89453125 21.734375 -32.89453125 21.734375 -32 19 C-29.88014191 17.51216807 -27.98162506 16.39087199 -25.6875 15.25 C-19.4691366 11.94862601 -13.98052971 8.19732619 -8.42578125 3.8828125 C-3.42323651 0 -3.42323651 0 0 0 Z " fill="#D4C585" transform="translate(128,137)"/>
<path d="M0 0 C0 3.63 0 7.26 0 11 C-2.50651042 11.84635417 -5.01302083 12.69270833 -7.51953125 13.5390625 C-10.99081108 15.58356432 -11.68369422 17.18608839 -13 21 C-13.47388709 24.6231641 -13.60093257 28.22432787 -13.6875 31.875 C-13.72166016 32.84953125 -13.75582031 33.8240625 -13.79101562 34.828125 C-13.87304293 37.21863491 -13.94233848 39.60879905 -14 42 C-14.33 42 -14.66 42 -15 42 C-15.08756305 38.29181703 -15.14058015 34.58390237 -15.1875 30.875 C-15.21263672 29.82828125 -15.23777344 28.7815625 -15.26367188 27.703125 C-15.31703346 22.08237176 -15.33096491 17.79078246 -12 13 C-11.34 12.67 -10.68 12.34 -10 12 C-10.32960216 6.98464948 -10.32960216 6.98464948 -13 3 C-8.22427016 -0.92292094 -6.17625432 -1.23525086 0 0 Z " fill="#8E6330" transform="translate(507,137)"/>
<path d="M0 0 C3.79918838 0.51340384 5.43134786 1.2079868 8 4 C8.680625 4.33 9.36125 4.66 10.0625 5 C12 6 12 6 14 9 C13.34 9 12.68 9 12 9 C12.66 10.32 13.32 11.64 14 13 C8.61520156 14.38071755 4.19586041 13.71552127 -1 12 C-3.5625 10.375 -3.5625 10.375 -5 9 C-3.7508258 5.54074837 -2.32472205 2.85306797 0 0 Z " fill="#E3D78D" transform="translate(334,166)"/>
<path d="M0 0 C6.65302633 2.19614461 11.10823197 4.03262236 15 10 C15 10.66 15 11.32 15 12 C16.65 12 18.3 12 20 12 C19 14 19 14 17.2578125 14.6171875 C14.75881769 15.0408925 12.40931595 15.13256512 9.875 15.125 C8.57175781 15.12886719 8.57175781 15.12886719 7.2421875 15.1328125 C5 15 5 15 3 14 C3 13.34 3 12.68 3 12 C2.01 11.67 1.02 11.34 0 11 C0.33 10.34 0.66 9.68 1 9 C0.34 8.67 -0.32 8.34 -1 8 C-0.67 5.36 -0.34 2.72 0 0 Z " fill="#DFCD83" transform="translate(387,167)"/>
<path d="M0 0 C0.66 0.33 1.32 0.66 2 1 C2 2.32 2 3.64 2 5 C-5.52094947 9.40772572 -12.9284713 13.66005709 -21 17 C-21.33 16.34 -21.66 15.68 -22 15 C-21.01 14.34 -20.02 13.68 -19 13 C-20.65 13.33 -22.3 13.66 -24 14 C-24.33 13.34 -24.66 12.68 -25 12 C-24.24976562 11.70867187 -23.49953125 11.41734375 -22.7265625 11.1171875 C-16.47669995 8.61409394 -10.73879767 5.85328981 -5.05859375 2.234375 C-3 1 -3 1 0 0 Z " fill="#C7B276" transform="translate(106,126)"/>
<path d="M0 0 C4.26223101 0 8.12908099 1.33607707 12.19921875 2.49023438 C16.47298097 3.67261326 20.61156213 4.45997202 25 5 C24.360625 5.268125 23.72125 5.53625 23.0625 5.8125 C20.66868314 6.88667752 20.66868314 6.88667752 20 10 C12.74601342 9.52432875 6.73187777 7.70533406 0 5 C0 3.35 0 1.7 0 0 Z " fill="#B79552" transform="translate(154,146)"/>
<path d="M0 0 C4.29 0 8.58 0 13 0 C17 7.75 17 7.75 17 10 C16.34 10 15.68 10 15 10 C13.74335022 7.09399739 13 5.20395416 13 2 C10.69 2.33 8.38 2.66 6 3 C4.98088955 6.89114901 4.83217031 8.60596507 6.4375 12.375 C6.953125 13.24125 7.46875 14.1075 8 15 C8.66 15 9.32 15 10 15 C10.66 15.66 11.32 16.32 12 17 C12.66 17.33 13.32 17.66 14 18 C13.67 19.65 13.34 21.3 13 23 C12.01 23.33 11.02 23.66 10 24 C7.31699929 22.65849965 7.1562968 21.39312285 6.0546875 18.6328125 C5.70019531 17.74722656 5.34570312 16.86164063 4.98046875 15.94921875 C4.61566406 15.01722656 4.25085938 14.08523437 3.875 13.125 C3.31619141 11.73861328 3.31619141 11.73861328 2.74609375 10.32421875 C0 3.39360119 0 3.39360119 0 0 Z " fill="#926836" transform="translate(211,137)"/>
<path d="M0 0 C2.82482708 1.29012666 4.8825812 2.67713134 7.125 4.8125 C11.27693706 8.49406511 15.97960145 10.71708235 21 13 C20 16 20 16 17.9375 17.1875 C17.298125 17.455625 16.65875 17.72375 16 18 C9.03360311 13.18499038 2.76746116 8.21365443 -3 2 C-2.01 1.34 -1.02 0.68 0 0 Z " fill="#DFD395" transform="translate(136,132)"/>
<path d="M0 0 C2.49361571 1.20381448 4.68143083 2.45428722 7 4 C7.33 2.68 7.66 1.36 8 0 C8.42410156 0.49628906 8.84820312 0.99257812 9.28515625 1.50390625 C12.35745619 5.06237234 15.44807851 8.4663357 18.875 11.6875 C21.55552523 14.30206152 22.88195956 16.10466535 23 20 C16.32692465 18.73147609 12.6427272 14.1275134 8.125 9.4375 C7.34125 8.64408203 6.5575 7.85066406 5.75 7.03320312 C0 1.16800278 0 1.16800278 0 0 Z " fill="#C8AF71" transform="translate(84,168)"/>
<path d="M0 0 C4.29 0 8.58 0 13 0 C12.83837003 7.27334843 9.04781684 12.15550206 5 18 C4.34 16.68 3.68 15.36 3 14 C3.66 14 4.32 14 5 14 C5 13.34 5 12.68 5 12 C4.34 11.67 3.68 11.34 3 11 C4.32 9.02 5.64 7.04 7 5 C4.36 4.67 1.72 4.34 -1 4 C-0.67 2.68 -0.34 1.36 0 0 Z " fill="#97703C" transform="translate(175,152)"/>
<path d="M0 0 C4.62 0.66 9.24 1.32 14 2 C14 4.31 14 6.62 14 9 C14.33 9.99 14.66 10.98 15 12 C8.98507959 14.34728601 4.40378974 14.84132641 -1.75 12.6875 C-4.43300524 11.29440113 -6.12827402 10.31213209 -8 8 C-6.68 8 -5.36 8 -4 8 C-3.67 8.66 -3.34 9.32 -3 10 C-2.34 9.67 -1.68 9.34 -1 9 C0.33333333 8.33333333 1.66666667 7.66666667 3 7 C3 8.65 3 10.3 3 12 C4.65 10.68 6.3 9.36 8 8 C7.34 7.34 6.68 6.68 6 6 C7.65 5.01 9.3 4.02 11 3 C9.741875 3.061875 8.48375 3.12375 7.1875 3.1875 C5.04296875 3.29296875 5.04296875 3.29296875 3 3 C2.01 2.01 1.02 1.02 0 0 Z " fill="#C9B370" transform="translate(289,168)"/>
<path d="M0 0 C2 2 2 2 2 3 C2.66 3 3.32 3 4 3 C4.33 2.01 4.66 1.02 5 0 C5.33 0.99 5.66 1.98 6 3 C4.13114096 4.61181532 2.25546823 6.21432428 0.375 7.8125 C-0.40810547 8.49022461 -0.40810547 8.49022461 -1.20703125 9.18164062 C-4.59393267 12.04587207 -7.87033069 14.26366177 -12 16 C-14.375 15.6875 -14.375 15.6875 -16 15 C-15.6438985 12.28545574 -15.29467249 11.24256199 -13.14453125 9.47265625 C-12.37496094 9.00730469 -11.60539063 8.54195312 -10.8125 8.0625 C-6.91574836 5.61613675 -3.46532361 3.02105135 0 0 Z " fill="#C5B07B" transform="translate(157,186)"/>
<path d="M0 0 C1.17844001 3.53532003 1 6.26100308 1 10 C1.66 10.33 2.32 10.66 3 11 C1.04196493 11.05389087 -0.91648909 11.09274217 -2.875 11.125 C-3.96554687 11.14820313 -5.05609375 11.17140625 -6.1796875 11.1953125 C-9 11 -9 11 -11 9 C-10.34 8.01 -9.68 7.02 -9 6 C-9.31506627 2.85778033 -9.31506627 2.85778033 -10 0 C-6.42355152 -1.2380014 -3.66305234 -0.74926071 0 0 Z " fill="#B99A58" transform="translate(450,170)"/>
<path d="M0 0 C2.31 0 4.62 0 7 0 C7.66 1.32 8.32 2.64 9 4 C7.02 4.99 7.02 4.99 5 6 C5.33 6.66 5.66 7.32 6 8 C5.34 8 4.68 8 4 8 C4.66 9.65 5.32 11.3 6 13 C4.98046875 14.48828125 4.98046875 14.48828125 3 16 C0.35003674 16.2172101 -2.05076558 16.28351554 -4.6875 16.1875 C-5.38939453 16.17396484 -6.09128906 16.16042969 -6.81445312 16.14648438 C-8.54329829 16.11120182 -10.27174765 16.05739583 -12 16 C-12 15.34 -12 14.68 -12 14 C-5.07 14.495 -5.07 14.495 2 15 C0.45957252 10.19695965 0.45957252 10.19695965 -2 8 C-2.125 4.875 -2.125 4.875 -2 2 C-1.34 2 -0.68 2 0 2 C0 1.34 0 0.68 0 0 Z " fill="#D4BE76" transform="translate(403,140)"/>
<path d="M0 0 C2.30859375 1.39453125 2.30859375 1.39453125 4 3 C4 3.66 4 4.32 4 5 C3.401875 5.268125 2.80375 5.53625 2.1875 5.8125 C-0.04292693 6.86180044 -0.04292693 6.86180044 -1.4375 8.625 C-3 10 -3 10 -5.5 10.375 C-8 10 -8 10 -9.875 8.75 C-11 7 -11 7 -10.6875 4.8125 C-10.460625 4.214375 -10.23375 3.61625 -10 3 C-10.99 3.495 -10.99 3.495 -12 4 C-12.99 3.34 -13.98 2.68 -15 2 C-10.33185446 -0.48967762 -5.1708946 -0.78194016 0 0 Z " fill="#EDE297" transform="translate(352,136)"/>
<path d="M0 0 C2.54364729 2.98602073 3.33050809 5.17433195 4 9 C4.37125 9.680625 4.7425 10.36125 5.125 11.0625 C6.20863003 13.4619665 5.8677564 14.57028208 5 17 C3.0625 16.625 3.0625 16.625 1 16 C0.67 15.34 0.34 14.68 0 14 C-0.99 14 -1.98 14 -3 14 C-3 13.34 -3 12.68 -3 12 C-4.32 12.33 -5.64 12.66 -7 13 C-6.02325896 11.01963514 -5.04354018 9.04073867 -4.0625 7.0625 C-3.51722656 5.96035156 -2.97195312 4.85820312 -2.41015625 3.72265625 C-1 1 -1 1 0 0 Z " fill="#A37E41" transform="translate(241,135)"/>
<path d="M0 0 C3.1766615 2.98413656 6.04494474 6.13055772 8.8125 9.5 C9.71935547 10.59828125 9.71935547 10.59828125 10.64453125 11.71875 C12.22114119 14.37217998 12.27244379 15.96572406 12 19 C4.2693297 15.7293318 0.24891702 9.91579047 -4 3 C-3.01 3 -2.02 3 -1 3 C-0.67 2.01 -0.34 1.02 0 0 Z " fill="#A2814C" transform="translate(79,153)"/>
<path d="M0 0 C3.64073039 2.0953844 6.95495356 4.39553216 10.25 7 C11.12140625 7.680625 11.9928125 8.36125 12.890625 9.0625 C15 11 15 11 16 14 C12.57644029 15.14118657 11.26382602 14.69297348 8.05078125 13.234375 C3.9114174 10.74287219 0.4809073 7.32304302 -3 4 C-2.34 3.67 -1.68 3.34 -1 3 C-0.34 3.33 0.32 3.66 1 4 C0.67 2.68 0.34 1.36 0 0 Z " fill="#CFBB84" transform="translate(106,184)"/>
<path d="M0 0 C3.96 0 7.92 0 12 0 C12 3.98376626 10.54313948 7.21422134 9.125 10.875 C8.85558594 11.58269531 8.58617187 12.29039062 8.30859375 13.01953125 C6.90610374 16.69337092 5.47281906 20.35370037 4 24 C2.81738792 20.59129459 3.19828768 18.85601678 4.5625 15.5625 C5.92072327 11.92310027 5.92072327 11.92310027 5.1875 8.125 C4.5996875 7.073125 4.5996875 7.073125 4 6 C4 5.01 4 4.02 4 3 C2.35 3 0.7 3 -1 3 C-0.67 2.01 -0.34 1.02 0 0 Z " fill="#AE925D" transform="translate(259,137)"/>
<path d="M0 0 C0.33 0.99 0.66 1.98 1 3 C0.34 3 -0.32 3 -1 3 C-1.39180108 4.57925975 -1.76280736 6.16368794 -2.125 7.75 C-2.33382813 8.63171875 -2.54265625 9.5134375 -2.7578125 10.421875 C-3.03422935 13.36437693 -2.4670035 14.5006607 -1 17 C-1 17.66 -1 18.32 -1 19 C-0.34 19.33 0.32 19.66 1 20 C1 20.99 1 21.98 1 23 C1.66 23.33 2.32 23.66 3 24 C2.34 24 1.68 24 1 24 C1 24.66 1 25.32 1 26 C1.66 26.33 2.32 26.66 3 27 C1.35 27.66 -0.3 28.32 -2 29 C-5.82123107 22.15362766 -6.3845116 14.28066925 -4.390625 6.67578125 C-3.28281378 3.97973047 -2.06375934 2.06375934 0 0 Z " fill="#C3AA6A" transform="translate(431,144)"/>
<path d="M0 0 C0.66 1.32 1.32 2.64 2 4 C2.66 4 3.32 4 4 4 C4.33 2.68 4.66 1.36 5 0 C5.96019364 1.58220587 6.91807798 3.16581331 7.875 4.75 C8.67550781 6.07257813 8.67550781 6.07257813 9.4921875 7.421875 C10.75596666 9.58274093 11.91498835 11.74570395 13 14 C11.35 14.33 9.7 14.66 8 15 C6.84372186 13.44521347 5.7003781 11.88080281 4.5625 10.3125 C3.92441406 9.44238281 3.28632812 8.57226562 2.62890625 7.67578125 C1.01028351 5.01689258 0.3916038 3.06112831 0 0 Z " fill="#ECE3A4" transform="translate(124,118)"/>
<path d="M0 0 C0 0.33 0 0.66 0 1 C-0.59167969 1.06058594 -1.18335938 1.12117187 -1.79296875 1.18359375 C-3.4203323 1.35615269 -5.04664963 1.53881482 -6.671875 1.73046875 C-8.42390364 1.93330428 -10.18012207 2.10043592 -11.9375 2.25 C-12.618125 2.4975 -13.29875 2.745 -14 3 C-14.33 3.825 -14.66 4.65 -15 5.5 C-15.33 6.325 -15.66 7.15 -16 8 C-17.66666667 8.33333333 -19.33333333 8.66666667 -21 9 C-22.29042763 11.26601865 -22.29042763 11.26601865 -23 14 C-23.350625 14.763125 -23.70125 15.52625 -24.0625 16.3125 C-25.30479869 19.87375623 -25.61852412 23.24882052 -26 27 C-26.33 27 -26.66 27 -27 27 C-27.29934696 19.66599949 -27.07594606 13.36432297 -22.4375 7.3125 C-16.15372079 0.55705698 -8.89613882 -0.66860334 0 0 Z " fill="#DDD295" transform="translate(400,137)"/>
<path d="M0 0 C0.33 0.66 0.66 1.32 1 2 C0.09176973 4.43557572 -0.86828071 6.76195517 -1.9375 9.125 C-2.22818359 9.78371094 -2.51886719 10.44242188 -2.81835938 11.12109375 C-3.53860198 12.75049505 -4.26841143 14.37566132 -5 16 C-8 15 -8 15 -9.60546875 12.27734375 C-10.12753906 11.17519531 -10.64960938 10.07304687 -11.1875 8.9375 C-11.71730469 7.83277344 -12.24710938 6.72804687 -12.79296875 5.58984375 C-13.19128906 4.73519531 -13.58960938 3.88054687 -14 3 C-11 4 -11 4 -9 6 C-7.01178687 6.39764263 -5.01055661 6.73775349 -3 7 C-2.690625 6.030625 -2.38125 5.06125 -2.0625 4.0625 C-1 1 -1 1 0 0 Z " fill="#A88853" transform="translate(259,166)"/>
<path d="M0 0 C0.33 1.98 0.66 3.96 1 6 C0.360625 5.814375 -0.27875 5.62875 -0.9375 5.4375 C-1.9584375 5.2209375 -1.9584375 5.2209375 -3 5 C-4.2981424 6.1490712 -4.2981424 6.1490712 -5 9 C-4.34 9 -3.68 9 -3 9 C-2.34 10.98 -1.68 12.96 -1 15 C-2.32 15.33 -3.64 15.66 -5 16 C-7.75525224 11.86712164 -8.14057589 8.10863841 -7.8125 3.1875 C-7 1 -7 1 -5.125 -0.375 C-3 -1 -3 -1 0 0 Z " fill="#DED494" transform="translate(337,143)"/>
<path d="M0 0 C1.65 0.33 3.3 0.66 5 1 C5.12375 2.175625 5.12375 2.175625 5.25 3.375 C5.72806339 6.14749104 5.72806339 6.14749104 8.0625 7.3125 C8.701875 7.539375 9.34125 7.76625 10 8 C3.375 11 3.375 11 0 11 C-1.6875 8.3125 -1.6875 8.3125 -3 5 C-1.6875 2.125 -1.6875 2.125 0 0 Z " fill="#DFCF86" transform="translate(386,140)"/>
<path d="M0 0 C0.375 2.25 0.375 2.25 0 5 C-2.6875 7.125 -2.6875 7.125 -6 9 C-6.94875 9.5775 -7.8975 10.155 -8.875 10.75 C-9.926875 11.36875 -9.926875 11.36875 -11 12 C-11 7.49813385 -9.55701196 5.64496122 -6.625 2.25 C-4 0 -4 0 0 0 Z " fill="#BCA066" transform="translate(169,178)"/>
<path d="M0 0 C0.99 0.33 1.98 0.66 3 1 C2.46324097 4.85103301 0.88399077 6.31797587 -2.0625 8.75 C-3.16271484 9.67039062 -3.16271484 9.67039062 -4.28515625 10.609375 C-4.85105469 11.06828125 -5.41695313 11.5271875 -6 12 C-6.45375 11.525625 -6.9075 11.05125 -7.375 10.5625 C-8.93258204 8.90972192 -8.93258204 8.90972192 -11 8 C-9.23871656 6.63343543 -7.46563912 5.28205915 -5.6875 3.9375 C-4.70136719 3.18339844 -3.71523437 2.42929688 -2.69921875 1.65234375 C-1.80847656 1.10707031 -0.91773437 0.56179687 0 0 Z " fill="#D7C687" transform="translate(115,118)"/>
<path d="M0 0 C1.86323318 0.25288812 3.71708432 0.57690153 5.5625 0.9375 C6.57441406 1.13214844 7.58632813 1.32679688 8.62890625 1.52734375 C9.80259766 1.76130859 9.80259766 1.76130859 11 2 C10 4 10 4 8 6 C8.33 6.66 8.66 7.32 9 8 C7.6875 9.5 7.6875 9.5 6 11 C5.01 11 4.02 11 3 11 C2.87625 10.360625 2.7525 9.72125 2.625 9.0625 C2.41875 8.381875 2.2125 7.70125 2 7 C1.34 6.67 0.68 6.34 0 6 C-0.6875 3.5 -0.6875 3.5 -1 1 C-0.67 0.67 -0.34 0.34 0 0 Z " fill="#C8AB66" transform="translate(289,169)"/>
<path d="M0 0 C0.928125 0.45375 1.85625 0.9075 2.8125 1.375 C3.8125 4.375 3.8125 4.375 2.875 6.375 C2.524375 7.035 2.17375 7.695 1.8125 8.375 C1.8125 9.365 1.8125 10.355 1.8125 11.375 C1.1525 11.375 0.4925 11.375 -0.1875 11.375 C-0.5175 9.725 -0.8475 8.075 -1.1875 6.375 C-3.4975 6.045 -5.8075 5.715 -8.1875 5.375 C-6.65396513 0.77439538 -4.92374279 -0.96543976 0 0 Z " fill="#D1B970" transform="translate(308.1875,140.625)"/>
<path d="M0 0 C-0.43388982 4.91741794 -2.5589194 7.5589194 -6 11 C-8.8125 11.875 -8.8125 11.875 -11 12 C-10.40312566 8.65750371 -9.26396123 6.53563658 -7 4 C-6.34 4 -5.68 4 -5 4 C-4.67 3.01 -4.34 2.02 -4 1 C-2 0 -2 0 0 0 Z " fill="#C4A461" transform="translate(140,145)"/>
<path d="M0 0 C0.33 0.99 0.66 1.98 1 3 C1.66 3.33 2.32 3.66 3 4 C-0.96 6.97 -4.92 9.94 -9 13 C-9.66 12.67 -10.32 12.34 -11 12 C-10.34 10.68 -9.68 9.36 -9 8 C-9.66 7.67 -10.32 7.34 -11 7 C-7.37 4.69 -3.74 2.38 0 0 Z " fill="#E5DBA0" transform="translate(128,154)"/>
<path d="M0 0 C-0.26171875 1.86328125 -0.26171875 1.86328125 -1 4 C-2.70703125 5.23046875 -2.70703125 5.23046875 -4.8125 6.1875 C-5.84310547 6.67283203 -5.84310547 6.67283203 -6.89453125 7.16796875 C-8.91535582 7.96655063 -10.88134438 8.52865864 -13 9 C-13 8.34 -13 7.68 -13 7 C-12.01 6.34 -11.02 5.68 -10 5 C-11.65 5.33 -13.3 5.66 -15 6 C-15.33 5.34 -15.66 4.68 -16 4 C-5.62642369 -0.59225513 -5.62642369 -0.59225513 0 0 Z " fill="#B4945B" transform="translate(97,134)"/>
<path d="M0 0 C2.60585556 3.90878334 2.22321871 7.46121966 2 12 C0.13872594 13.86127406 -2.49929136 13.46118139 -4.9921875 13.71875 C-7.20138785 13.9662595 -7.20138785 13.9662595 -10 15 C-10.99 14.01 -11.98 13.02 -13 12 C-11.4221875 11.9071875 -11.4221875 11.9071875 -9.8125 11.8125 C-5.2636797 10.84307928 -3.78047588 9.68004161 -1 6 C-0.12010026 2.81849108 -0.12010026 2.81849108 0 0 Z " fill="#C5B272" transform="translate(418,151)"/>
<path d="M0 0 C3.2002215 0 5.61483471 0.63242392 8.6875 1.5 C9.68136719 1.7784375 10.67523438 2.056875 11.69921875 2.34375 C12.45847656 2.5603125 13.21773437 2.776875 14 3 C14 3.33 14 3.66 14 4 C12.35 4.33 10.7 4.66 9 5 C10.32 6.32 11.64 7.64 13 9 C11.58194169 8.71517632 10.16559621 8.42181856 8.75 8.125 C7.96109375 7.96257812 7.1721875 7.80015625 6.359375 7.6328125 C4.03168856 7.00849925 2.10968048 6.15161458 0 5 C0 3.35 0 1.7 0 0 Z " fill="#C4A967" transform="translate(154,146)"/>
<path d="M0 0 C-0.53675903 3.85103301 -2.11600923 5.31797587 -5.0625 7.75 C-6.16271484 8.67039063 -6.16271484 8.67039063 -7.28515625 9.609375 C-7.85105469 10.06828125 -8.41695313 10.5271875 -9 11 C-9.99 10.34 -10.98 9.68 -12 9 C-9.47005257 3.94010514 -5.94928326 0 0 0 Z " fill="#C3AA6B" transform="translate(128,137)"/>
<path d="M0 0 C4.38889325 0.66498383 7.9811485 2.18757677 12 4 C11 7 11 7 8.9375 8.1875 C8.298125 8.455625 7.65875 8.72375 7 9 C5.8225266 8.26708288 4.65823146 7.51296199 3.5 6.75 C2.52546875 6.12351563 2.52546875 6.12351563 1.53125 5.484375 C1.0259375 4.99453125 0.520625 4.5046875 0 4 C0 2.68 0 1.36 0 0 Z " fill="#CCB47E" transform="translate(145,141)"/>
<path d="M0 0 C2.49361571 1.20381448 4.68143083 2.45428722 7 4 C7.33 2.68 7.66 1.36 8 0 C9.01194706 1.07218201 10.00918057 2.15826378 11 3.25 C11.8353125 4.15492188 11.8353125 4.15492188 12.6875 5.078125 C14 7 14 7 14 11 C7.68466634 9.73693327 4.0732979 5.70393539 0 1 C0 0.67 0 0.34 0 0 Z " fill="#B19860" transform="translate(84,168)"/>
<path d="M0 0 C3.34373475 0.55728913 6.03312999 1.35173889 9 3 C7.55746343 6.36591866 5.66735273 8.51047079 3 11 C0.87953208 7.46588679 0.46800711 4.05606165 0 0 Z " fill="#CEBC78" transform="translate(408,167)"/>
<path d="M0 0 C-0.33 0.66 -0.66 1.32 -1 2 C-0.34 2 0.32 2 1 2 C1 2.66 1 3.32 1 4 C-4.50016964 5.30267176 -9.47032059 4.71033431 -15 4 C-14 2 -14 2 -13 1 C-11.19793656 0.57768658 -9.38261591 0.21109423 -7.5625 -0.125 C-6.57378906 -0.31320313 -5.58507812 -0.50140625 -4.56640625 -0.6953125 C-2 -1 -2 -1 0 0 Z " fill="#E8DE95" transform="translate(142,199)"/>
<path d="M0 0 C0.33 1.65 0.66 3.3 1 5 C-1.31 6.65 -3.62 8.3 -6 10 C-7.32 9.34 -8.64 8.68 -10 8 C-8.89904638 4.69713914 -8.3103981 4.21489099 -5.5625 2.3125 C-4.94503906 1.87550781 -4.32757813 1.43851563 -3.69140625 0.98828125 C-2 0 -2 0 0 0 Z " fill="#E9E0A0" transform="translate(117,144)"/>
<path d="M0 0 C3.465 1.485 3.465 1.485 7 3 C7 6 7 6 5 9 C2.375 9.1875 2.375 9.1875 0 9 C-0.66 7.68 -1.32 6.36 -2 5 C-0.68 4.34 0.64 3.68 2 3 C1.01 3 0.02 3 -1 3 C-0.67 2.01 -0.34 1.02 0 0 Z " fill="#CBB169" transform="translate(295,137)"/>
<path d="M0 0 C4.78902145 2.43969017 7.62722182 3.97529326 10 9 C7 10 7 10 3.4375 8.75 C0 7 0 7 -2 4 C-0.68 4.33 0.64 4.66 2 5 C1.34 3.35 0.68 1.7 0 0 Z " fill="#DDCF90" transform="translate(112,189)"/>
<path d="M0 0 C0.33 0.66 0.66 1.32 1 2 C1.66 2 2.32 2 3 2 C3 2.66 3 3.32 3 4 C2.34 4 1.68 4 1 4 C1 5.65 1 7.3 1 9 C0.01 9.495 0.01 9.495 -1 10 C-3.0625 8.3125 -3.0625 8.3125 -5 6 C-4.75 3.25 -4.75 3.25 -4 1 C-2.68 0.67 -1.36 0.34 0 0 Z " fill="#986733" transform="translate(74,140)"/>
<path d="M0 0 C4.29 0 8.58 0 13 0 C12.01 1.485 12.01 1.485 11 3 C10.01 3 9.02 3 8 3 C7.01 3.66 6.02 4.32 5 5 C1.8125 4.625 1.8125 4.625 -1 4 C-0.67 2.68 -0.34 1.36 0 0 Z " fill="#9B7540" transform="translate(175,152)"/>
<path d="M0 0 C4.29 0 8.58 0 13 0 C17 7.75 17 7.75 17 10 C16.34 10 15.68 10 15 10 C13.74335022 7.09399739 13 5.20395416 13 2 C11.37419034 2.11398665 9.74932843 2.24155659 8.125 2.375 C7.22007812 2.44460937 6.31515625 2.51421875 5.3828125 2.5859375 C2.82058097 2.79568132 2.82058097 2.79568132 1 5 C0.67 3.35 0.34 1.7 0 0 Z " fill="#8C6844" transform="translate(211,137)"/>
<path d="M0 0 C0.33 0.99 0.66 1.98 1 3 C0.34 3 -0.32 3 -1 3 C-1.39180108 4.57925975 -1.76280736 6.16368794 -2.125 7.75 C-2.33382813 8.63171875 -2.54265625 9.5134375 -2.7578125 10.421875 C-3.03418584 13.36391373 -2.39505548 14.47352158 -1 17 C-2.06546953 19.13093906 -3.29159719 20.36587557 -5 22 C-5.56174007 8.16455012 -5.56174007 8.16455012 -2 2 C-1.34 1.34 -0.68 0.68 0 0 Z " fill="#C4AE76" transform="translate(431,144)"/>
<path d="M0 0 C-0.495 0.94875 -0.99 1.8975 -1.5 2.875 C-3.14424369 5.72278166 -3.14424369 5.72278166 -3 8 C-5.4375 7.3125 -5.4375 7.3125 -8 6 C-8.8125 3.375 -8.8125 3.375 -9 1 C-5.57367167 -0.61798838 -3.61944899 -1.34053666 0 0 Z " fill="#BE9C51" transform="translate(451,155)"/>
<path d="M0 0 C0.84884766 0.23396484 0.84884766 0.23396484 1.71484375 0.47265625 C2.81505859 0.76462891 2.81505859 0.76462891 3.9375 1.0625 C5.03384766 1.35833984 5.03384766 1.35833984 6.15234375 1.66015625 C7.06693359 1.82837891 7.06693359 1.82837891 8 2 C8.33 1.67 8.66 1.34 9 1 C11.01964199 0.92755947 13.04167124 0.91622812 15.0625 0.9375 C16.16722656 0.94652344 17.27195312 0.95554688 18.41015625 0.96484375 C19.26480469 0.97644531 20.11945313 0.98804688 21 1 C20.67 1.66 20.34 2.32 20 3 C16.9453125 3.6328125 16.9453125 3.6328125 13.125 4.125 C11.86945313 4.29257813 10.61390625 4.46015625 9.3203125 4.6328125 C6 5 6 5 3 5 C3 4.34 3 3.68 3 3 C2.01 2.67 1.02 2.34 0 2 C0 1.34 0 0.68 0 0 Z " fill="#D0C38E" transform="translate(299,136)"/>
<path d="M0 0 C0.33 0.66 0.66 1.32 1 2 C0.34 2 -0.32 2 -1 2 C-1 2.66 -1 3.32 -1 4 C-0.01 4.33 0.98 4.66 2 5 C-0.59613267 7.13253755 -2.63067173 8.55075623 -6 9 C-6.66 8.67 -7.32 8.34 -8 8 C-7.9375 6.25 -7.9375 6.25 -7 4 C-4.75835678 2.40498463 -2.46433357 1.25456982 0 0 Z " fill="#D4C283" transform="translate(149,193)"/>
<path d="M0 0 C1.98 0 3.96 0 6 0 C6.66 1.65 7.32 3.3 8 5 C6.98046875 6.48828125 6.98046875 6.48828125 5 8 C2.35003674 8.2172101 -0.05076558 8.28351554 -2.6875 8.1875 C-3.7403418 8.16719727 -3.7403418 8.16719727 -4.81445312 8.14648438 C-6.54329829 8.11120182 -8.27174765 8.05739583 -10 8 C-10 7.34 -10 6.68 -10 6 C-3.07 6.495 -3.07 6.495 4 7 C2.45957252 2.19695965 2.45957252 2.19695965 0 0 Z " fill="#CEBF8B" transform="translate(401,148)"/>
<path d="M0 0 C1.010625 0.0825 2.02125 0.165 3.0625 0.25 C3.7225 1.24 4.3825 2.23 5.0625 3.25 C4.4025 3.25 3.7425 3.25 3.0625 3.25 C3.7225 4.57 4.3825 5.89 5.0625 7.25 C2.4225 6.92 -0.2175 6.59 -2.9375 6.25 C-2.6075 4.93 -2.2775 3.61 -1.9375 2.25 C-2.5975 1.92 -3.2575 1.59 -3.9375 1.25 C-2.9375 0.25 -2.9375 0.25 0 0 Z " fill="#EBDC8C" transform="translate(342.9375,171.75)"/>
<path d="M0 0 C-0.78375 0.391875 -1.5675 0.78375 -2.375 1.1875 C-5.46436406 3.32063233 -5.88032598 4.48650734 -7 8 C-7.35810321 10.50429465 -7.35810321 10.50429465 -7.4140625 13.08203125 C-7.45273437 14.01337891 -7.49140625 14.94472656 -7.53125 15.90429688 C-7.5621875 16.86400391 -7.593125 17.82371094 -7.625 18.8125 C-7.66367187 19.79154297 -7.70234375 20.77058594 -7.7421875 21.77929688 C-7.83610816 24.18601374 -7.92178201 26.59273012 -8 29 C-8.33 29 -8.66 29 -9 29 C-9.08756305 25.29181703 -9.14058015 21.58390237 -9.1875 17.875 C-9.21263672 16.82828125 -9.23777344 15.7815625 -9.26367188 14.703125 C-9.31703346 9.08237176 -9.33096491 4.79078246 -6 0 C-3.50907189 -1.24546405 -2.58919267 -0.7767578 0 0 Z " fill="#866740" transform="translate(501,150)"/>
<path d="M0 0 C2.50549588 0.23474053 4.62910634 -0.12969495 7.04296875 -0.80859375 C1.31793031 3.73195398 -3.87092025 3.62545578 -10.95703125 3.19140625 C-14.64453125 2.19140625 -14.64453125 2.19140625 -16.95703125 1.19140625 C-16.95703125 0.86140625 -16.95703125 0.53140625 -16.95703125 0.19140625 C-16.01730469 0.20880859 -16.01730469 0.20880859 -15.05859375 0.2265625 C-13.83269531 0.24009766 -13.83269531 0.24009766 -12.58203125 0.25390625 C-11.36386719 0.27130859 -11.36386719 0.27130859 -10.12109375 0.2890625 C-0.88700507 -0.12763825 -0.88700507 -0.12763825 0 0 Z " fill="#EBE6AB" transform="translate(353.95703125,178.80859375)"/>
<path d="M0 0 C0.99 0 1.98 0 3 0 C3 0.66 3 1.32 3 2 C2.34 2 1.68 2 1 2 C1.33 3.65 1.66 5.3 2 7 C1.360625 7.28875 0.72125 7.5775 0.0625 7.875 C-2.15206079 8.82823451 -2.15206079 8.82823451 -3 11 C-3.66 10.67 -4.32 10.34 -5 10 C-4.67 8.35 -4.34 6.7 -4 5 C-3.34 5 -2.68 5 -2 5 C-1.34 3.35 -0.68 1.7 0 0 Z " fill="#A77F44" transform="translate(177,164)"/>
<path d="M0 0 C1.32 1.32 2.64 2.64 4 4 C1.36151691 7.61569905 -0.95293333 10.02835214 -5 12 C-5.99 12 -6.98 12 -8 12 C-7.375 10.0625 -7.375 10.0625 -6 8 C-2.875 7.25 -2.875 7.25 0 7 C0 4.69 0 2.38 0 0 Z " fill="#A2895B" transform="translate(466,168)"/>
<path d="M0 0 C0.598125 0.20625 1.19625 0.4125 1.8125 0.625 C1.8125 1.945 1.8125 3.265 1.8125 4.625 C-1.1875 6.625 -1.1875 6.625 -4.1875 6.625 C-4.5175 4.975 -4.8475 3.325 -5.1875 1.625 C-2.1875 -0.375 -2.1875 -0.375 0 0 Z " fill="#F6EA99" transform="translate(361.1875,141.375)"/>
<path d="M0 0 C0 1.65 0 3.3 0 5 C0.99 5.33 1.98 5.66 3 6 C-0.11271517 7.36959468 -1.25666155 6.90994332 -4.5625 5.75 C-7.35882656 4.32641557 -9.06688563 3.3879648 -11 1 C-9.68 1 -8.36 1 -7 1 C-6.67 1.66 -6.34 2.32 -6 3 C0 0 0 0 0 0 Z " fill="#C3AF78" transform="translate(292,175)"/>
<path d="M0 0 C-0.75 2.4375 -0.75 2.4375 -2 5 C-4 5.875 -4 5.875 -6 6 C-6.66 5.67 -7.32 5.34 -8 5 C-8 3.68 -8 2.36 -8 1 C-5.29120665 -0.35439668 -2.99066732 -0.06501451 0 0 Z " fill="#AB8C48" transform="translate(113,167)"/>
<path d="M0 0 C0 3.67165265 -1.09398129 4.89389544 -3 8 C-5.51619253 13.12916169 -6.50737074 17.38402641 -7 23 C-7.33 23 -7.66 23 -8 23 C-8.36235486 14.12230584 -7.3982338 7.98611574 -1.2421875 1.28515625 C-0.83226562 0.86105469 -0.42234375 0.43695313 0 0 Z " fill="#E3DDA6" transform="translate(381,141)"/>
<path d="M0 0 C-0.33 0.99 -0.66 1.98 -1 3 C-1.99 3 -2.98 3 -4 3 C-4 3.66 -4 4.32 -4 5 C-5.98 5.66 -7.96 6.32 -10 7 C-10 6.34 -10 5.68 -10 5 C-9.34 4.67 -8.68 4.34 -8 4 C-9.65 3.67 -11.3 3.34 -13 3 C-8.86395936 0.24263957 -4.91089275 0 0 0 Z " fill="#A37F4B" transform="translate(88,138)"/>
<path d="M0 0 C2.24147917 2.84621842 4.03393357 5.71478344 5.6875 8.9375 C6.12449219 9.77152344 6.56148437 10.60554687 7.01171875 11.46484375 C8.06685114 14.17148771 8.19044848 16.12268373 8 19 C6.5 17.6875 6.5 17.6875 5 16 C5 15.01 5 14.02 5 13 C4.34 12.67 3.68 12.34 3 12 C2.64080332 10.33871537 2.31088368 8.67099977 2 7 C1.649375 6.29875 1.29875 5.5975 0.9375 4.875 C0 3 0 3 0 0 Z " fill="#A48652" transform="translate(243,139)"/>
<path d="M0 0 C-0.625 2.4375 -0.625 2.4375 -2 5 C-5.125 5.8125 -5.125 5.8125 -8 6 C-7.625 3.5625 -7.625 3.5625 -7 1 C-4.53721199 -0.231394 -2.7204945 -0.07159196 0 0 Z " fill="#A68753" transform="translate(103,155)"/>
<path d="M0 0 C0.66 0 1.32 0 2 0 C3.38232443 1.62626404 4.71937515 3.2925002 6 5 C0.06 5.495 0.06 5.495 -6 6 C-6 5.34 -6 4.68 -6 4 C-5.01 4 -4.02 4 -3 4 C-3 3.34 -3 2.68 -3 2 C-2.01 2 -1.02 2 0 2 C0 1.34 0 0.68 0 0 Z " fill="#B4955D" transform="translate(449,143)"/>
<path d="M0 0 C0.99 0.33 1.98 0.66 3 1 C3.33 2.98 3.66 4.96 4 7 C3.360625 6.814375 2.72125 6.62875 2.0625 6.4375 C1.0415625 6.2209375 1.0415625 6.2209375 0 6 C-0.33 6.33 -0.66 6.66 -1 7 C-1.66 7.66 -2.32 8.32 -3 9 C-3.1875 5.625 -3.1875 5.625 -3 2 C-2.01 1.34 -1.02 0.68 0 0 Z " fill="#E0D384" transform="translate(334,142)"/>
<path d="M0 0 C0 0.99 0 1.98 0 3 C-1.8125 4.0625 -1.8125 4.0625 -4 5 C-4.99 4.67 -5.98 4.34 -7 4 C-6.67 3.67 -6.34 3.34 -6 3 C-6.99 2.34 -7.98 1.68 -9 1 C-3.375 -1.125 -3.375 -1.125 0 0 Z " fill="#BFA56C" transform="translate(102,132)"/>
<path d="M0 0 C2.30441554 3.45662331 2.25860135 4.94857881 2 9 C1.67 9.66 1.34 10.32 1 11 C-1.31 11 -3.62 11 -6 11 C-6 10.67 -6 10.34 -6 10 C-4.35 10 -2.7 10 -1 10 C-1.020625 8.906875 -1.04125 7.81375 -1.0625 6.6875 C-1 3 -1 3 0 0 Z " fill="#9C7649" transform="translate(471,153)"/>
<path d="M0 0 C0.33 0.66 0.66 1.32 1 2 C1.66 2 2.32 2 3 2 C4.80230168 5.82989106 5.19622241 8.78121808 5 13 C3.77503707 11.1625556 2.59564016 9.29237027 1.5 7.375 C0.21973738 4.8942773 0.21973738 4.8942773 -2 4 C-1.34 2.68 -0.68 1.36 0 0 Z " fill="#D3C189" transform="translate(304,145)"/>
<path d="M0 0 C0.33 0.99 0.66 1.98 1 3 C1.66 3.33 2.32 3.66 3 4 C-0.625 7 -0.625 7 -4 7 C-4 6.34 -4 5.68 -4 5 C-4.66 4.67 -5.32 4.34 -6 4 C-4.02 2.68 -2.04 1.36 0 0 Z " fill="#D9CC90" transform="translate(128,154)"/>
<path d="M0 0 C2 1.1875 2 1.1875 4 3 C4.25 5.6875 4.25 5.6875 4 8 C1.11562221 6.70700306 -0.87219421 5.34058637 -3 3 C-2.01 2.01 -1.02 1.02 0 0 Z " fill="#B18E50" transform="translate(87,164)"/>
<path d="M0 0 C0 0.66 0 1.32 0 2 C-1.98 2.99 -1.98 2.99 -4 4 C-3.938125 4.78375 -3.87625 5.5675 -3.8125 6.375 C-3.874375 7.24125 -3.93625 8.1075 -4 9 C-4.99 9.66 -5.98 10.32 -7 11 C-7.66 9.68 -8.32 8.36 -9 7 C-3.34042553 0 -3.34042553 0 0 0 Z " fill="#DFD5A1" transform="translate(125,110)"/>
<path d="M0 0 C0 1.32 0 2.64 0 4 C-2.375 5.0625 -2.375 5.0625 -5 6 C-5.66 5.67 -6.32 5.34 -7 5 C-7 4.34 -7 3.68 -7 3 C-6.34 3 -5.68 3 -5 3 C-5 2.34 -5 1.68 -5 1 C-3 0 -3 0 0 0 Z " fill="#CCB571" transform="translate(155,192)"/>
<path d="M0 0 C0.33 1.32 0.66 2.64 1 4 C0.34 4 -0.32 4 -1 4 C-0.67 4.66 -0.34 5.32 0 6 C1.32 5.67 2.64 5.34 4 5 C4.33 6.65 4.66 8.3 5 10 C-0.66153846 8.52307692 -0.66153846 8.52307692 -2.375 5.875 C-2.58125 5.25625 -2.7875 4.6375 -3 4 C-2.01 2.68 -1.02 1.36 0 0 Z " fill="#E0D89F" transform="translate(332,169)"/>
<path d="M0 0 C0.66 0 1.32 0 2 0 C2.84454356 3.37817425 3.10844919 5.67465243 2 9 C1.01 8.67 0.02 8.34 -1 8 C-1.625 5.6875 -1.625 5.6875 -2 3 C-1.34 2.01 -0.68 1.02 0 0 Z " fill="#A67A3F" transform="translate(244,158)"/>
<path d="M0 0 C0.66 0 1.32 0 2 0 C4.125 5.625 4.125 5.625 3 9 C-0.32901247 6.78065836 -0.75023244 5.65316671 -2 2 C-1.34 2 -0.68 2 0 2 C0 1.34 0 0.68 0 0 Z " fill="#B0894C" transform="translate(459,154)"/>
<path d="M0 0 C0 0.33 0 0.66 0 1 C-1.65 1.33 -3.3 1.66 -5 2 C-3.68 3.32 -2.36 4.64 -1 6 C-3.64 5.34 -6.28 4.68 -9 4 C-9 2.68 -9 1.36 -9 0 C-5.52176885 -1.15941038 -3.54104422 -0.70820884 0 0 Z " fill="#B99C68" transform="translate(168,149)"/>
<path d="M0 0 C1.65 1.65 3.3 3.3 5 5 C4.67 5.99 4.34 6.98 4 8 C2.35 7.67 0.7 7.34 -1 7 C-0.67 4.69 -0.34 2.38 0 0 Z " fill="#E2DAA0" transform="translate(132,125)"/>
<path d="M0 0 C0.99 0 1.98 0 3 0 C2 3 2 3 1 4 C4.3 4 7.6 4 11 4 C11 4.33 11 4.66 11 5 C9.04196493 5.05389087 7.08351091 5.09274217 5.125 5.125 C4.03445312 5.14820313 2.94390625 5.17140625 1.8203125 5.1953125 C-1 5 -1 5 -3 3 C-2.01 2.67 -1.02 2.34 0 2 C0 1.34 0 0.68 0 0 Z " fill="#EFE8AA" transform="translate(126,199)"/>
<path d="M0 0 C1.98 0 3.96 0 6 0 C6.99 2.64 7.98 5.28 9 8 C7.68 7.67 6.36 7.34 5 7 C4.29788106 5.34795544 3.63028587 3.68076231 3 2 C2.01 1.67 1.02 1.34 0 1 C0 0.67 0 0.34 0 0 Z " fill="#BAA46A" transform="translate(281,160)"/>
<path d="M0 0 C3.15330554 0.60694155 5.18888867 1.6416665 7.75 3.5625 C8.67039062 4.24505859 8.67039062 4.24505859 9.609375 4.94140625 C10.29773438 5.46541016 10.29773438 5.46541016 11 6 C10.01 7.485 10.01 7.485 9 9 C8.67 8.01 8.34 7.02 8 6 C7.34 6 6.68 6 6 6 C5.67 6.66 5.34 7.32 5 8 C4.54625 7.05125 4.0925 6.1025 3.625 5.125 C2.19761746 1.99686321 2.19761746 1.99686321 0 0 Z " fill="#AB8B57" transform="translate(453,148)"/>
<path d="M0 0 C-0.639375 0.268125 -1.27875 0.53625 -1.9375 0.8125 C-4.33131686 1.88667752 -4.33131686 1.88667752 -5 5 C-6.65 5 -8.3 5 -10 5 C-10.33 4.01 -10.66 3.02 -11 2 C-7.17679443 0.57741188 -4.08718695 -0.24042276 0 0 Z " fill="#A98651" transform="translate(179,151)"/>
<path d="M0 0 C0.66 0 1.32 0 2 0 C2.625 2.375 2.625 2.375 3 5 C2.34 5.66 1.68 6.32 1 7 C0.01 7 -0.98 7 -2 7 C-2.33 6.01 -2.66 5.02 -3 4 C-1.6875 1.8125 -1.6875 1.8125 0 0 Z " fill="#DBCF8F" transform="translate(115,144)"/>
<path d="M0 0 C-0.54723683 3.37462715 -1.0549 5.08235 -3 8 C-3.66 8 -4.32 8 -5 8 C-4.74438677 5.6568787 -4.40729228 3.32156597 -4 1 C-2 0 -2 0 0 0 Z " fill="#9F804C" transform="translate(140,145)"/>
<path d="M0 0 C2.625 0.9375 2.625 0.9375 5 2 C4.34 3.32 3.68 4.64 3 6 C1.0625 5.1875 1.0625 5.1875 -1 4 C-1.33 3.01 -1.66 2.02 -2 1 C-1.34 0.67 -0.68 0.34 0 0 Z " fill="#D6C78D" transform="translate(142,138)"/>
<path d="M0 0 C-1.86127406 1.86127406 -4.49929136 1.46118139 -6.9921875 1.71875 C-9.20138785 1.9662595 -9.20138785 1.9662595 -12 3 C-12.99 2.01 -13.98 1.02 -15 0 C-13.06325815 -0.19517554 -11.12555991 -0.38087873 -9.1875 -0.5625 C-8.10855469 -0.66691406 -7.02960938 -0.77132812 -5.91796875 -0.87890625 C-3 -1 -3 -1 0 0 Z " fill="#C4AE81" transform="translate(420,163)"/>
<path d="M0 0 C1.65 1.32 3.3 2.64 5 4 C4.67 4.66 4.34 5.32 4 6 C1.4375 6.625 1.4375 6.625 -1 7 C-2 4 -2 4 -1.0625 1.8125 C-0.5365625 0.9153125 -0.5365625 0.9153125 0 0 Z " fill="#CCBB82" transform="translate(411,141)"/>
<path d="M0 0 C0.99 0 1.98 0 3 0 C2.60196439 2.88575819 2.20990931 3.82189513 -0.0625 5.75 C-0.701875 6.1625 -1.34125 6.575 -2 7 C-2.66 6.34 -3.32 5.68 -4 5 C-2.1875 2.5 -2.1875 2.5 0 0 Z " fill="#A4824D" transform="translate(125,137)"/>
<path d="M0 0 C0 0.66 0 1.32 0 2 C0.99 1.67 1.98 1.34 3 1 C3 1.66 3 2.32 3 3 C0.1875 4.125 0.1875 4.125 -3 5 C-3.99 4.34 -4.98 3.68 -6 3 C-2.25 0 -2.25 0 0 0 Z " fill="#CEB47D" transform="translate(301,177)"/>
<path d="M0 0 C1 3 1 3 0 6 C-1.32 5.67 -2.64 5.34 -4 5 C-4.33 3.68 -4.66 2.36 -5 1 C-3 0 -3 0 0 0 Z " fill="#8B612E" transform="translate(187,153)"/>
<path d="M0 0 C1.42944945 2.35438733 2.08661261 3.48032433 1.625 6.25 C1.41875 6.8275 1.2125 7.405 1 8 C0.01 8 -0.98 8 -2 8 C-1.125 2.25 -1.125 2.25 0 0 Z " fill="#C6A764" transform="translate(430,147)"/>
<path d="M0 0 C4.75 0.75 4.75 0.75 7 3 C5.1875 4.0625 5.1875 4.0625 3 5 C2.01 4.67 1.02 4.34 0 4 C0 2.68 0 1.36 0 0 Z " fill="#CFC082" transform="translate(145,141)"/>
<path d="M0 0 C3.96 0 7.92 0 12 0 C12 0.99 12 1.98 12 3 C11.01 2.67 10.02 2.34 9 2 C3.85056722 1.5982661 3.85056722 1.5982661 -1 3 C-0.67 2.01 -0.34 1.02 0 0 Z " fill="#B09A72" transform="translate(259,137)"/>
<path d="M0 0 C0.99 0.99 1.98 1.98 3 3 C2.01 4.485 2.01 4.485 1 6 C-2.16115776 4.63016497 -2.9927092 4.0109362 -5 1 C-2.525 1.99 -2.525 1.99 0 3 C0 2.01 0 1.02 0 0 Z " fill="#BDA672" transform="translate(98,176)"/>
<path d="M0 0 C-0.33 0.66 -0.66 1.32 -1 2 C-3.92713788 2.94934202 -5.42831368 3.23176473 -8.3125 2.0625 C-8.869375 1.711875 -9.42625 1.36125 -10 1 C-6.1496895 -1.56687367 -4.41430237 -0.83288724 0 0 Z " fill="#D0C587" transform="translate(407,179)"/>
<path d="M0 0 C2.91227269 3.28804981 4.49701212 5.59885603 5 10 C-0.73529412 4.70588235 -0.73529412 4.70588235 -1 1 C-0.67 0.67 -0.34 0.34 0 0 Z " fill="#E3DBA4" transform="translate(375,165)"/>
<path d="M0 0 C0.66 0.33 1.32 0.66 2 1 C0.375 7.75 0.375 7.75 -3 10 C-3.99 9.67 -4.98 9.34 -6 9 C-4.7934375 7.88625 -4.7934375 7.88625 -3.5625 6.75 C-1.23011409 4.24695171 -0.36465606 3.2819045 0 0 Z " fill="#CDBD89" transform="translate(308,160)"/>
<path d="M0 0 C0.99 0 1.98 0 3 0 C3 1.32 3 2.64 3 4 C2.01 4 1.02 4 0 4 C-0.33 5.32 -0.66 6.64 -1 8 C-1.93065133 5.39417629 -2.14917407 4.35801776 -1.0625 1.75 C-0.711875 1.1725 -0.36125 0.595 0 0 Z " fill="#B59757" transform="translate(267,140)"/>
<path d="M0 0 C5.445 1.485 5.445 1.485 11 3 C11 3.33 11 3.66 11 4 C8.69 4.66 6.38 5.32 4 6 C3.67 5.01 3.34 4.02 3 3 C2.01 2.67 1.02 2.34 0 2 C0 1.34 0 0.68 0 0 Z " fill="#D1BC85" transform="translate(299,136)"/>
<path d="M0 0 C0.66 0.33 1.32 0.66 2 1 C1.67 1.66 1.34 2.32 1 3 C1.66 3 2.32 3 3 3 C3 3.66 3 4.32 3 5 C1.02 5.33 -0.96 5.66 -3 6 C-2.34 5.67 -1.68 5.34 -1 5 C-1.33 4.01 -1.66 3.02 -2 2 C-1.34 1.34 -0.68 0.68 0 0 Z " fill="#DCCE92" transform="translate(140,198)"/>
<path d="M0 0 C0.99 0 1.98 0 3 0 C3 1.65 3 3.3 3 5 C2.01 5.495 2.01 5.495 1 6 C0.34 5.67 -0.32 5.34 -1 5 C-0.67 3.35 -0.34 1.7 0 0 Z " fill="#B8994E" transform="translate(166,178)"/>
<path d="M0 0 C0 1.32 0 2.64 0 4 C-2.02045442 3.39816251 -4.02111039 2.72693904 -6 2 C-6.33 1.34 -6.66 0.68 -7 0 C-3.86650268 -1.04449911 -3.01031744 -0.93423645 0 0 Z " fill="#BC9F64" transform="translate(98,175)"/>
<path d="M0 0 C0.99 0 1.98 0 3 0 C3 0.66 3 1.32 3 2 C2.34 2 1.68 2 1 2 C1.33 3.32 1.66 4.64 2 6 C0.02 6 -1.96 6 -4 6 C-3.34 5.67 -2.68 5.34 -2 5 C-1.27840576 3.35636866 -0.60648579 1.68949614 0 0 Z " fill="#B3913A" transform="translate(177,164)"/>
<path d="M0 0 C0.33 0.66 0.66 1.32 1 2 C-0.4375 4.625 -0.4375 4.625 -2 7 C-2.66 6.67 -3.32 6.34 -4 6 C-3.34 5.01 -2.68 4.02 -2 3 C-3.32 2.67 -4.64 2.34 -6 2 C-4.02 1.34 -2.04 0.68 0 0 Z " fill="#BFA468" transform="translate(115,164)"/>
<path d="M0 0 C0 1.32 0 2.64 0 4 C-1.32 4.33 -2.64 4.66 -4 5 C-3.67 4.01 -3.34 3.02 -3 2 C-3.99 1.34 -4.98 0.68 -6 0 C-3 -1 -3 -1 0 0 Z " fill="#C2AC66" transform="translate(105,154)"/>
<path d="M0 0 C0.66 0.99 1.32 1.98 2 3 C2.66 3.33 3.32 3.66 4 4 C2.68 4.99 1.36 5.98 0 7 C0 6.01 0 5.02 0 4 C-0.99 3.67 -1.98 3.34 -3 3 C-2.01 2.01 -1.02 1.02 0 0 Z " fill="#B0905E" transform="translate(169,174)"/>
<path d="M0 0 C0.66 0 1.32 0 2 0 C2.99 1.98 3.98 3.96 5 6 C2.525 5.01 2.525 5.01 0 4 C0 2.68 0 1.36 0 0 Z " fill="#D6C379" transform="translate(110,189)"/>
<path d="M0 0 C1.65 0.33 3.3 0.66 5 1 C4.34 2.32 3.68 3.64 3 5 C1.68 4.34 0.36 3.68 -1 3 C-0.67 2.01 -0.34 1.02 0 0 Z " fill="#B2995C" transform="translate(444,169)"/>
<path d="M0 0 C3.465 1.485 3.465 1.485 7 3 C6.34 4.32 5.68 5.64 5 7 C4.34 6.34 3.68 5.68 3 5 C3.33 4.34 3.66 3.68 4 3 C2.68 2.67 1.36 2.34 0 2 C0 1.34 0 0.68 0 0 Z " fill="#C0B07F" transform="translate(410,167)"/>
<path d="M0 0 C2.97 0.99 5.94 1.98 9 3 C9 3.33 9 3.66 9 4 C6.69 4.33 4.38 4.66 2 5 C1.34 3.35 0.68 1.7 0 0 Z " fill="#D8CE94" transform="translate(387,167)"/>
<path d="M0 0 C1.65 0 3.3 0 5 0 C4.01 0.495 4.01 0.495 3 1 C1.86649466 3.01669827 1.86649466 3.01669827 1 5 C0.34 4.67 -0.32 4.34 -1 4 C-0.67 2.68 -0.34 1.36 0 0 Z " fill="#916028" transform="translate(214,139)"/>
</svg>
